<svg height='100px' width='100px'  fill="#CC0000" xmlns="http://www.w3.org/2000/svg" xmlns:xlink="http://www.w3.org/1999/xlink" version="1.0" x="0px" y="0px" viewBox="0 0 123 123" enable-background="new 0 0 123 123" xml:space="preserve"><g><path fill-rule="evenodd" clip-rule="evenodd" d="M66.5,54.3C82.2,44,56,14.7,48.2,18.1c-1.3,0.6-2.3,1.5-2.9,2.5   c-0.7,1.2-0.9,2.7-0.3,4.1l-1.5,4.8l3.3-3.3c1.4-0.6,2.4-1.1,3-2c0.6-0.9,0.9-1.8,1-3.5c3.3,0.9,4.9,2.9,5.2,5.4   c0.2,1.8-8.5,11.9-9.5,13.4C36.9,54,56.3,60.4,66.5,54.3z"></path><path fill-rule="evenodd" clip-rule="evenodd" d="M29.6,54.5c6.3,0,11.3-6.4,14.3-11.2c-1.1,0.4-2.2,0.6-3.4,0.7   c-4.8,0.3-13.6-4.4-17.4,2.1c-1,1.8-0.7,3.9,0.5,5.5C24.8,53.3,26.9,54.6,29.6,54.5z"></path><path fill-rule="evenodd" clip-rule="evenodd" d="M66.2,74.4c0.3-6.9-6.5-12.8-11.7-16.3c0.4,1.3,0.6,2.4,0.6,3.7   c0.1,5.3-5.4,14.8,1.5,19.3c1.9,1.2,4.2,1,6.1-0.3C64.6,79.6,66,77.3,66.2,74.4z"></path><path fill-rule="evenodd" clip-rule="evenodd" d="M65.6,74c0.3-6.3-5.9-11.6-10.6-14.8c0.4,1.1,0.5,2.2,0.6,3.4   c0.1,4.9-5,13.5,1.3,17.5c1.7,1.1,3.8,0.9,5.5-0.2C64.2,78.7,65.5,76.7,65.6,74z"></path><path fill-rule="evenodd" clip-rule="evenodd" d="M10.5,70.7c5.9,0.2,10.9-5.7,13.8-10.2c-1.1,0.4-2.1,0.5-3.2,0.6   c-4.6,0.1-12.8-4.5-16.5,1.5c-1,1.6-0.8,3.6,0.3,5.2C6,69.4,8,70.7,10.5,70.7z"></path><path fill-rule="evenodd" clip-rule="evenodd" d="M102.4,36.2c-4.4-1.9-9.9,1.1-13.4,3.6c0.9,0,1.7,0.2,2.6,0.5   c3.5,1.2,8.3,7.2,12.9,3.8c1.2-0.9,1.7-2.5,1.3-4C105.4,38.5,104.3,37,102.4,36.2z"></path><path fill-rule="evenodd" clip-rule="evenodd" d="M91.6,77.4c-2.5-4.1-8.6-5-13-5c0.7,0.6,1.3,1.2,1.8,1.9   c2.1,3.1,2.5,10.7,8.2,10.6c1.6,0,2.8-1,3.4-2.5C92.7,81,92.6,79.1,91.6,77.4z"></path><path fill-rule="evenodd" clip-rule="evenodd" d="M51.2,76.4c2.9-7.3-2.3-16.2-6.5-21.8c0,1.5-0.2,2.8-0.7,4.3   c-1.9,5.8-11.3,13.9-5.5,21.3c1.6,2,4.2,2.6,6.7,2C47.6,81.4,50,79.5,51.2,76.4z"></path><path fill-rule="evenodd" clip-rule="evenodd" d="M50.8,75.8c2.6-6.6-2-14.7-5.9-19.8c0,1.4-0.2,2.6-0.6,3.9   c-1.7,5.3-10.3,12.6-5,19.3c1.4,1.8,3.8,2.4,6,1.8C47.5,80.3,49.7,78.6,50.8,75.8z"></path><path fill-rule="evenodd" clip-rule="evenodd" d="M49.8,73.5c2-5.2-1.6-11.4-4.6-15.4c0,1.1-0.2,2-0.5,3c-1.3,4.1-8,9.8-3.9,15   c1.1,1.4,2.9,1.8,4.7,1.4C47.3,77,49,75.6,49.8,73.5z"></path><path fill-rule="evenodd" clip-rule="evenodd" d="M26.2,93.4c6.1-2.5,8.6-10.7,9.5-16.6c-0.9,0.9-1.9,1.5-3,2   c-4.6,2.2-15.1,1.1-16.2,8.9c-0.3,2.1,0.8,4.1,2.7,5.2C21.1,94.1,23.6,94.4,26.2,93.4z"></path><path fill-rule="evenodd" clip-rule="evenodd" d="M26.4,92.8c5.6-2.3,7.8-9.7,8.7-15.1c-0.9,0.8-1.7,1.3-2.7,1.8   c-4.2,2-13.7,1-14.7,8.1c-0.3,1.9,0.7,3.7,2.4,4.7C21.7,93.4,24,93.7,26.4,92.8z"></path><path fill-rule="evenodd" clip-rule="evenodd" d="M27.2,90.8c4.3-1.8,6-7.6,6.7-11.7c-0.7,0.6-1.3,1-2.1,1.4   c-3.3,1.6-10.6,0.8-11.4,6.3c-0.2,1.5,0.6,2.9,1.9,3.7C23.6,91.3,25.4,91.5,27.2,90.8z"></path><path fill-rule="evenodd" clip-rule="evenodd" d="M28.7,38.7c3.2,4.1,9.9,4.2,14.6,3.7c-0.8-0.5-1.5-1.1-2.2-1.8   c-2.6-3-4-11.2-10.2-10.4c-1.7,0.2-2.9,1.5-3.4,3.1C27,35,27.3,37,28.7,38.7z"></path><path fill-rule="evenodd" clip-rule="evenodd" d="M28.9,38.2c2.5,3.6,8.1,3.9,12,3.7c-0.7-0.5-1.2-1-1.7-1.6   c-2.1-2.6-2.9-9.5-8.1-9.1c-1.4,0.1-2.5,1.1-3,2.5C27.7,35,27.9,36.7,28.9,38.2z"></path><path fill-rule="evenodd" clip-rule="evenodd" d="M27.5,79.7c5.1-0.9,8.4-6.8,10.2-11.1c-0.9,0.5-1.7,0.8-2.7,1   c-3.9,0.9-11.8-1.7-13.9,4c-0.6,1.6-0.1,3.3,1.1,4.5C23.5,79.3,25.4,80.1,27.5,79.7z"></path><path fill-rule="evenodd" clip-rule="evenodd" d="M27.2,79.2c4.3-0.5,7.3-5.3,9-8.9c-0.7,0.4-1.4,0.6-2.3,0.8   c-3.3,0.6-9.8-1.9-11.8,2.8c-0.6,1.3-0.2,2.7,0.8,3.8C23.8,78.8,25.4,79.4,27.2,79.2z"></path><path fill-rule="evenodd" clip-rule="evenodd" d="M9.8,58.5c5.1-0.9,8.4-6.8,10.2-11.1c-0.9,0.5-1.7,0.8-2.7,1   c-3.9,0.9-11.8-1.7-13.9,4c-0.6,1.6-0.1,3.3,1.1,4.5C5.8,58.1,7.7,58.9,9.8,58.5z"></path><path fill-rule="evenodd" clip-rule="evenodd" d="M9.5,58c4.3-0.5,7.3-5.3,9-8.8c-0.7,0.4-1.4,0.6-2.3,0.8   c-3.3,0.6-9.8-1.9-11.8,2.8c-0.6,1.3-0.2,2.7,0.8,3.8C6.1,57.6,7.7,58.2,9.5,58z"></path><path fill-rule="evenodd" clip-rule="evenodd" d="M66.3,86c1.2-2.1,0.1-5.1-0.9-7c-0.1,0.5-0.2,0.8-0.4,1.3   c-0.9,1.7-4.2,3.7-2.8,6.2c0.4,0.7,1.1,1,1.9,0.9C64.9,87.3,65.7,86.9,66.3,86z"></path><path fill-rule="evenodd" clip-rule="evenodd" d="M66,86c1.1-1.7,0.3-4.2-0.4-5.9c-0.1,0.4-0.2,0.7-0.4,1c-0.8,1.4-3.6,2.9-2.6,5.1   c0.3,0.6,0.9,0.9,1.6,0.9C64.8,87,65.5,86.7,66,86z"></path><path fill-rule="evenodd" clip-rule="evenodd" d="M45.7,98.8c1.6-0.8,2.1-3.2,2.2-4.8c-0.2,0.3-0.5,0.5-0.8,0.6   c-1.2,0.7-4.1,0.7-4.2,2.8c0,0.6,0.3,1.1,0.9,1.4C44.3,99.1,45,99.1,45.7,98.8z"></path><path fill-rule="evenodd" clip-rule="evenodd" d="M45.6,98.7c1.4-0.6,1.9-2.5,2-3.9c-0.2,0.2-0.4,0.4-0.7,0.5   c-1,0.6-3.4,0.4-3.6,2.2c0,0.5,0.2,0.9,0.7,1.2C44.4,98.9,45,98.9,45.6,98.7z"></path><path fill-rule="evenodd" clip-rule="evenodd" d="M88.6,41.6c-7.1-0.1-13,7-16.4,12.4c1.3-0.5,2.5-0.7,3.8-0.7   c5.5-0.3,15.4,5.2,19.7-2c1.2-2,0.9-4.4-0.4-6.3C94,43,91.6,41.6,88.6,41.6z"></path><path fill-rule="evenodd" clip-rule="evenodd" d="M88.9,42.3C83,41.9,77.8,47.6,74.7,52c1.1-0.3,2.1-0.5,3.2-0.5   c4.6,0,12.6,5,16.6-0.9c1.1-1.6,0.9-3.6-0.1-5.3C93.3,43.7,91.4,42.4,88.9,42.3z"></path><path fill-rule="evenodd" clip-rule="evenodd" d="M36.1,67.5c5.6-3.8,6.2-12.6,5.9-18.7c-0.8,1.1-1.5,1.9-2.6,2.7   c-4.1,3.2-14.8,4.4-14.2,12.5c0.2,2.2,1.7,3.9,3.8,4.6C31.1,69.3,33.7,69.1,36.1,67.5z"></path><path fill-rule="evenodd" clip-rule="evenodd" d="M35.5,67.1c4.8-3,5.7-10.3,5.7-15.4c-0.7,0.9-1.4,1.5-2.3,2.1   c-3.6,2.5-12.6,3.1-12.4,9.8c0,1.8,1.3,3.3,3,4C31.2,68.4,33.4,68.4,35.5,67.1z"></path><path fill-rule="evenodd" clip-rule="evenodd" d="M35.1,66.3c4.2-2.4,5.2-8.7,5.3-13.1c-0.6,0.7-1.2,1.3-2,1.8   c-3.2,2.1-10.9,2.3-10.9,8.1c0,1.6,1,2.9,2.5,3.5C31.4,67.3,33.3,67.4,35.1,66.3z"></path><path fill-rule="evenodd" clip-rule="evenodd" d="M3.4,45.4c5.5,4,14,1.7,19.6-0.7c-1.3-0.4-2.3-0.8-3.4-1.5   c-4.4-2.8-9.1-12.5-16.5-9.3c-2,0.9-3.1,2.9-3.1,5.1C0,41.3,1.1,43.7,3.4,45.4z"></path><path fill-rule="evenodd" clip-rule="evenodd" d="M3.5,44.7c4.4,3.5,11.6,1.9,16.4,0.2c-1-0.3-1.9-0.8-2.8-1.4   C13.6,41,10,32.7,3.7,35.1C2,35.8,1,37.4,0.9,39.3C0.8,41.1,1.6,43.2,3.5,44.7z"></path><path fill-rule="evenodd" clip-rule="evenodd" d="M4.1,44.1c3.7,3.2,9.9,2,14.1,0.7c-0.9-0.3-1.6-0.7-2.3-1.3   c-3-2.3-5.8-9.5-11.3-7.6c-1.5,0.5-2.4,1.9-2.5,3.5C1.9,41,2.6,42.8,4.1,44.1z"></path><path fill-rule="evenodd" clip-rule="evenodd" d="M12.3,33.5c3.1,6,11.7,7.8,17.8,8.2c-1-0.9-1.7-1.8-2.3-2.9   c-2.7-4.5-2.5-15.3-10.6-15.7c-2.2-0.1-4.1,1.2-5.1,3.2C11.1,28.4,11,31,12.3,33.5z"></path><path fill-rule="evenodd" clip-rule="evenodd" d="M12.7,32.9c2.3,5.2,9.5,7,14.5,7.6c-0.8-0.8-1.3-1.5-1.8-2.5   c-2-3.9-1.5-12.9-8.2-13.5c-1.8-0.2-3.4,0.8-4.4,2.5C12,28.6,11.7,30.8,12.7,32.9z"></path><path fill-rule="evenodd" clip-rule="evenodd" d="M13.5,32.7c1.9,4.5,8,6.3,12.3,6.9c-0.6-0.7-1.1-1.4-1.5-2.2   c-1.7-3.4-0.9-11.1-6.7-11.9c-1.6-0.2-3,0.6-3.8,2C13,28.9,12.7,30.8,13.5,32.7z"></path><path fill-rule="evenodd" clip-rule="evenodd" d="M51.8,90.4c3-3.5,1.8-9.4,0.5-13.4c-0.3,0.8-0.7,1.5-1.2,2.2   c-2.1,2.9-9,5.6-7.2,10.8c0.5,1.4,1.8,2.3,3.3,2.4C48.9,92.5,50.6,91.9,51.8,90.4z"></path><path fill-rule="evenodd" clip-rule="evenodd" d="M51.3,90.3c2.6-2.8,1.9-7.8,1-11.2c-0.3,0.7-0.6,1.2-1.1,1.8   c-1.9,2.3-7.7,4.3-6.4,8.7c0.4,1.2,1.4,2,2.7,2.1C48.8,91.9,50.2,91.5,51.3,90.3z"></path><path fill-rule="evenodd" clip-rule="evenodd" d="M51,89.8c2.4-2.4,1.9-6.7,1.2-9.6c-0.3,0.6-0.6,1.1-1,1.5   c-1.7,1.9-6.8,3.5-5.8,7.3c0.3,1,1.2,1.7,2.3,1.9C48.7,91.2,50,90.8,51,89.8z"></path><path fill-rule="evenodd" clip-rule="evenodd" d="M19.5,59.8c3.4,0.6,6.8-2.4,8.9-4.8c-0.7,0.1-1.2,0.1-1.9,0.1   c-2.7-0.3-7-3.7-9.7-0.5c-0.7,0.9-0.8,2-0.3,3.1C17,58.6,18,59.5,19.5,59.8z"></path><path fill-rule="evenodd" clip-rule="evenodd" d="M19.4,59.4c2.8,0.6,5.8-1.7,7.6-3.6c-0.6,0.1-1,0.1-1.6,0   c-2.2-0.4-5.7-3.4-8.1-0.8c-0.6,0.7-0.7,1.7-0.3,2.5C17.3,58.4,18.2,59.1,19.4,59.4z"></path><path fill-rule="evenodd" clip-rule="evenodd" d="M19.5,59c2.4,0.6,5-1.3,6.6-2.9c-0.5,0-0.9,0-1.4-0.1c-1.9-0.4-4.8-3-6.9-0.9   c-0.6,0.6-0.7,1.4-0.4,2.2C17.8,58,18.5,58.7,19.5,59z"></path><path fill-rule="evenodd" clip-rule="evenodd" d="M18.5,76.1c2.8-2,3.1-6.4,2.9-9.4c-0.4,0.5-0.8,1-1.3,1.4   c-2.1,1.6-7.4,2.3-7.1,6.4c0.1,1.1,0.9,1.9,1.9,2.3C16,77,17.3,76.9,18.5,76.1z"></path><path fill-rule="evenodd" clip-rule="evenodd" d="M18.2,75.9c2.4-1.5,2.8-5.2,2.8-7.8c-0.3,0.4-0.7,0.8-1.1,1.1   c-1.8,1.3-6.3,1.6-6.2,5c0,0.9,0.7,1.7,1.5,2C16,76.6,17.1,76.5,18.2,75.9z"></path><path fill-rule="evenodd" clip-rule="evenodd" d="M18,75.5c2.1-1.2,2.6-4.4,2.6-6.6c-0.3,0.4-0.6,0.6-1,0.9   C18,70.9,14.1,71,14.1,74c0,0.8,0.5,1.4,1.3,1.8C16.1,76,17.1,76,18,75.5z"></path><path fill-rule="evenodd" clip-rule="evenodd" d="M100.1,80.8c-0.7-3.3-4.6-5.4-7.5-6.4c0.3,0.6,0.6,1.1,0.7,1.7   c0.7,2.5-0.9,7.7,2.9,9c1,0.4,2.1,0,2.9-0.8C100,83.5,100.4,82.3,100.1,80.8z"></path><path fill-rule="evenodd" clip-rule="evenodd" d="M99.8,81.1c-0.4-2.8-3.6-4.7-6-5.7c0.3,0.5,0.4,0.9,0.5,1.5   c0.5,2.2-1.1,6.4,2.1,7.7c0.9,0.3,1.8,0.1,2.5-0.6C99.6,83.3,100,82.3,99.8,81.1z"></path><path fill-rule="evenodd" clip-rule="evenodd" d="M99.4,81.1c-0.3-2.4-3-4.1-5-5.1c0.2,0.4,0.3,0.8,0.4,1.3   c0.3,1.9-1.1,5.5,1.6,6.7c0.7,0.3,1.5,0.1,2.1-0.4C99.1,83,99.5,82.1,99.4,81.1z"></path><path fill-rule="evenodd" clip-rule="evenodd" d="M104.3,58.3c-4-3.8-11.2-2.8-16-1.4c1,0.4,1.8,0.9,2.6,1.6   c3.3,2.7,6.1,11.1,12.5,9.2c1.7-0.5,2.8-2,3-3.9C106.6,62,106,59.9,104.3,58.3z"></path><path fill-rule="evenodd" clip-rule="evenodd" d="M104.1,58.9c-3.2-3.3-9.2-2.8-13.3-1.9c0.8,0.4,1.5,0.8,2.1,1.4   c2.6,2.4,4.7,9.5,10,8.2c1.5-0.4,2.4-1.6,2.7-3.1C105.9,62,105.5,60.3,104.1,58.9z"></path><path fill-rule="evenodd" clip-rule="evenodd" d="M103.6,59.3c-2.7-3-7.9-2.6-11.4-2c0.7,0.4,1.2,0.7,1.8,1.3   c2.2,2.2,3.8,8.3,8.4,7.3c1.3-0.3,2.1-1.3,2.4-2.6C105,62,104.7,60.5,103.6,59.3z"></path><path fill-rule="evenodd" clip-rule="evenodd" d="M80,79c-0.7-6.7-8-11.5-13.5-14.2c0.6,1.2,0.9,2.3,1.1,3.5   c0.8,5.2-3.3,15.1,4.1,18.5c2,0.9,4.2,0.4,5.9-1.1C79.2,84.2,80.3,81.8,80,79z"></path><path fill-rule="evenodd" clip-rule="evenodd" d="M79.3,79.4c-0.3-5.7-6.3-10-10.7-12.4c0.4,1,0.7,1.9,0.8,3   c0.5,4.4-3.3,12.5,2.6,15.6c1.6,0.8,3.5,0.5,5-0.7C78.5,83.7,79.5,81.8,79.3,79.4z"></path><path fill-rule="evenodd" clip-rule="evenodd" d="M78.5,79.3c-0.1-4.9-5.1-8.7-8.9-11c0.3,0.9,0.5,1.7,0.6,2.6   c0.3,3.8-3.2,10.7,1.8,13.5c1.4,0.8,3,0.5,4.3-0.4C77.6,83,78.5,81.3,78.5,79.3z"></path><g><path fill-rule="evenodd" clip-rule="evenodd" d="M43.6,21c-2.6-2-6.1-4.7-3.5-8.4c1.5-1.5-0.6-1,0.9-2.9c-2.1-0.2-3,1.4-1.9,3.2    C38.2,16.9,40.2,19.2,43.6,21z"></path><path fill-rule="evenodd" clip-rule="evenodd" d="M39.7,13c0.1-0.2,0.2-0.4,0.4-0.6c1.3-1.4-0.6-0.8,0.7-2.6    C38.6,9.6,38,11.8,39.7,13z"></path><path fill-rule="evenodd" clip-rule="evenodd" d="M39.7,12.6c0.1-0.2,0.2-0.3,0.3-0.5c1-1.1-0.5-0.7,0.5-2.1    C38.8,9.9,38.4,11.7,39.7,12.6z"></path><path fill-rule="evenodd" clip-rule="evenodd" d="M39.7,12.2c0.1-0.1,0.1-0.3,0.2-0.4c0.8-0.9-0.4-0.5,0.4-1.6    C38.9,10.2,38.6,11.6,39.7,12.2z"></path><path fill-rule="evenodd" clip-rule="evenodd" d="M43.7,21c-2-1.9-4.4-4.4-1.9-7.1c1.4-1-0.4-0.8,1-2.2c-1.6-0.4-2.5,0.8-1.8,2.3    C39.8,17.2,41.2,19.2,43.7,21z"></path><path fill-rule="evenodd" clip-rule="evenodd" d="M41.5,13.9c0.1-0.1,0.2-0.2,0.3-0.4c0.9-0.8-0.3-0.5,0.6-1.5    C41,11.8,40.5,13.1,41.5,13.9z"></path><path fill-rule="evenodd" clip-rule="evenodd" d="M41.5,13.6c0.1-0.1,0.1-0.2,0.2-0.3c0.7-0.6-0.2-0.4,0.4-1.2    C41.1,12,40.7,13,41.5,13.6z"></path><path fill-rule="evenodd" clip-rule="evenodd" d="M41.4,14.2c0.1-0.1,0.2-0.3,0.3-0.4c1.1-0.9-0.3-0.7,0.8-1.9    C40.9,11.6,40.3,13.2,41.4,14.2z"></path><path fill-rule="evenodd" clip-rule="evenodd" d="M41.5,13.9c0.1-0.1,0.2-0.2,0.3-0.4c0.9-0.8-0.3-0.5,0.6-1.5    C41,11.8,40.5,13.1,41.5,13.9z"></path><path fill-rule="evenodd" clip-rule="evenodd" d="M41.5,13.6c0.1-0.1,0.1-0.2,0.2-0.3c0.7-0.6-0.2-0.4,0.4-1.2    C41.1,12,40.7,13,41.5,13.6z"></path><path fill-rule="evenodd" clip-rule="evenodd" d="M43.6,21c-1.4-1.6-3-3.7-0.8-5.5c1.2-0.7-0.2-0.7,1-1.6    c-1.2-0.5-2.1,0.4-1.7,1.6C41,17.8,41.8,19.3,43.6,21z"></path><path fill-rule="evenodd" clip-rule="evenodd" d="M43.6,21c-1-1.2-2-2.5-0.5-3.8c0.8-0.5-0.1-0.5,0.7-1.1    c-0.9-0.3-1.5,0.3-1.2,1.2C41.9,18.8,42.4,19.8,43.6,21z"></path><path fill-rule="evenodd" clip-rule="evenodd" d="M42.6,15.5c0.1-0.1,0.2-0.2,0.3-0.3c0.9-0.6-0.2-0.6,0.8-1.3    C42.4,13.5,41.8,14.6,42.6,15.5z"></path><path fill-rule="evenodd" clip-rule="evenodd" d="M42.7,15.3c0.1-0.1,0.1-0.2,0.2-0.3c0.7-0.5-0.2-0.4,0.6-1.1    C42.5,13.7,42,14.6,42.7,15.3z"></path><path fill-rule="evenodd" clip-rule="evenodd" d="M42.7,15.1c0-0.1,0.1-0.1,0.2-0.2c0.6-0.4-0.1-0.3,0.4-0.9    C42.5,13.8,42.2,14.6,42.7,15.1z"></path><path fill-rule="evenodd" clip-rule="evenodd" d="M43,17.2c0.1-0.1,0.1-0.1,0.2-0.2c0.6-0.4-0.1-0.4,0.5-0.9    C42.9,15.9,42.5,16.6,43,17.2z"></path><path fill-rule="evenodd" clip-rule="evenodd" d="M43,17.1c0-0.1,0.1-0.1,0.1-0.2c0.5-0.3-0.1-0.3,0.4-0.7    C42.9,16,42.6,16.6,43,17.1z"></path><path fill-rule="evenodd" clip-rule="evenodd" d="M43.1,16.9c0,0,0.1-0.1,0.1-0.1c0.4-0.3-0.1-0.2,0.3-0.6    C42.9,16.1,42.7,16.6,43.1,16.9z"></path><path fill-rule="evenodd" clip-rule="evenodd" d="M41.9,7.7c-0.6,0.2-0.9,1.1-1,1.7c0.1-0.1,0.2-0.1,0.3-0.2    c0.5-0.2,1.5-0.1,1.6-0.9c0-0.2-0.1-0.4-0.3-0.5C42.4,7.6,42.1,7.6,41.9,7.7z"></path><path fill-rule="evenodd" clip-rule="evenodd" d="M41.8,7.8C41.3,8,41.1,8.7,41,9.2c0.1-0.1,0.2-0.1,0.3-0.2    c0.4-0.2,1.3-0.1,1.4-0.7c0-0.2-0.1-0.3-0.2-0.4C42.3,7.8,42,7.7,41.8,7.8z"></path><path fill-rule="evenodd" clip-rule="evenodd" d="M41.8,7.9C41.4,8,41.2,8.6,41.1,9c0.1-0.1,0.1-0.1,0.2-0.1    c0.3-0.2,1.1-0.1,1.1-0.6c0-0.1-0.1-0.3-0.2-0.4C42.2,7.8,42,7.8,41.8,7.9z"></path><path fill-rule="evenodd" clip-rule="evenodd" d="M40,7.5c-0.3,0.4-0.2,1.1,0,1.5c0-0.1,0.1-0.2,0.1-0.3c0.2-0.3,1-0.7,0.8-1.3    c-0.1-0.2-0.2-0.3-0.4-0.3C40.3,7.2,40.1,7.3,40,7.5z"></path><path fill-rule="evenodd" clip-rule="evenodd" d="M40,7.6c-0.3,0.3-0.2,0.9,0,1.3c0-0.1,0.1-0.1,0.1-0.2c0.2-0.3,0.9-0.6,0.7-1.1    c-0.1-0.1-0.2-0.2-0.3-0.2C40.3,7.4,40.1,7.5,40,7.6z"></path><path fill-rule="evenodd" clip-rule="evenodd" d="M40,7.7c-0.2,0.3-0.1,0.8,0,1.1c0-0.1,0.1-0.1,0.1-0.2c0.2-0.2,0.7-0.5,0.6-0.9    c0-0.1-0.2-0.2-0.3-0.2C40.2,7.5,40.1,7.5,40,7.7z"></path><path fill-rule="evenodd" clip-rule="evenodd" d="M38.4,8.4c-0.1,0.4,0.3,0.8,0.6,1.1c0-0.1,0-0.2,0-0.2c0-0.3,0.5-0.9,0.1-1.2    C39,8,38.8,8,38.7,8.1C38.6,8.1,38.5,8.2,38.4,8.4z"></path><path fill-rule="evenodd" clip-rule="evenodd" d="M38.5,8.5c-0.1,0.4,0.2,0.7,0.5,0.9c0-0.1,0-0.1,0-0.2c0-0.3,0.4-0.7,0.1-1    c-0.1-0.1-0.2-0.1-0.3,0C38.6,8.3,38.5,8.4,38.5,8.5z"></path><path fill-rule="evenodd" clip-rule="evenodd" d="M38.5,8.5c-0.1,0.3,0.2,0.6,0.4,0.8c0-0.1,0-0.1,0-0.2c0-0.2,0.3-0.6,0.1-0.8    c-0.1-0.1-0.2-0.1-0.3,0C38.6,8.3,38.6,8.4,38.5,8.5z"></path><path fill-rule="evenodd" clip-rule="evenodd" d="M37.3,9.9c0.2,0.4,0.7,0.6,1.1,0.6c-0.1-0.1-0.1-0.1-0.1-0.2    c-0.1-0.3-0.1-1-0.6-1c-0.1,0-0.3,0.1-0.3,0.2C37.3,9.5,37.3,9.7,37.3,9.9z"></path><path fill-rule="evenodd" clip-rule="evenodd" d="M37.4,9.9c0.1,0.3,0.6,0.5,0.9,0.5c0-0.1-0.1-0.1-0.1-0.2    c-0.1-0.3-0.1-0.8-0.5-0.9c-0.1,0-0.2,0-0.3,0.1C37.4,9.6,37.4,9.8,37.4,9.9z"></path><path fill-rule="evenodd" clip-rule="evenodd" d="M37.5,9.9c0.1,0.3,0.5,0.4,0.7,0.4c0,0-0.1-0.1-0.1-0.1C38,10,38.1,9.5,37.7,9.5    c-0.1,0-0.2,0-0.2,0.1C37.4,9.7,37.4,9.8,37.5,9.9z"></path></g><path fill-rule="evenodd" clip-rule="evenodd" d="M91.3,32c-1.8,7.8-11.2,12.3-18,14.7c0.8-1.3,1.4-2.5,1.8-4   c1.7-6-1.6-18.3,7.5-21.1c2.5-0.8,5,0.2,6.7,2.2C91.2,25.7,92.1,28.7,91.3,32z"></path><path fill-rule="evenodd" clip-rule="evenodd" d="M90.7,31.5c-1.2,6.6-8.8,10.8-14.5,13c0.7-1.1,1.1-2.2,1.4-3.4   c1.2-5-2.1-15.2,5.4-17.9c2-0.7,4.2,0,5.7,1.5C90.3,26.2,91.2,28.7,90.7,31.5z"></path><path fill-rule="evenodd" clip-rule="evenodd" d="M83.1,72C75.3,71.6,69.3,63.3,66,57c1.4,0.6,2.7,0.9,4.2,1.1   c6,0.7,17.4-4.6,21.6,3.7c1.2,2.3,0.7,4.9-1,6.9C89.2,70.8,86.5,72.2,83.1,72z"></path><path fill-rule="evenodd" clip-rule="evenodd" d="M82.7,71.4c-7.1-0.4-12.5-7.9-15.6-13.5c1.3,0.5,2.4,0.8,3.8,1   c5.5,0.6,15.8-4.2,19.7,3.4c1.1,2,0.6,4.4-0.9,6.2C88.2,70.2,85.7,71.5,82.7,71.4z"></path><path fill-rule="evenodd" clip-rule="evenodd" d="M81,69.5c-5.5-0.3-9.7-6.2-12.1-10.5c1,0.4,1.9,0.7,2.9,0.8   c4.3,0.5,12.3-3.2,15.3,2.6c0.8,1.6,0.5,3.4-0.7,4.9C85.3,68.6,83.3,69.6,81,69.5z"></path><path fill-rule="evenodd" clip-rule="evenodd" d="M113.9,54.5c-5.4,3.5-13.2,0.8-18.4-1.6c1.2-0.3,2.2-0.7,3.3-1.3   c4.3-2.4,9.2-11.3,16-7.9c1.8,0.9,2.8,2.9,2.7,5C117.3,50.8,116.1,53,113.9,54.5z"></path><path fill-rule="evenodd" clip-rule="evenodd" d="M113.3,54.2c-4.9,3.2-12,0.8-16.7-1.5c1.1-0.2,2-0.6,3-1.1   c3.9-2.2,8.4-10.3,14.5-7.2c1.7,0.8,2.5,2.6,2.4,4.5C116.4,50.9,115.3,52.9,113.3,54.2z"></path><path fill-rule="evenodd" clip-rule="evenodd" d="M111.3,53.8c-3.8,2.4-9.3,0.6-13-1.1c0.8-0.2,1.6-0.5,2.3-0.9   c3-1.7,6.5-8,11.3-5.6c1.3,0.7,1.9,2,1.9,3.5C113.7,51.2,112.9,52.8,111.3,53.8z"></path><path fill-rule="evenodd" clip-rule="evenodd" d="M46.1,110c-2.2-6.9,2.9-14.7,7.1-19.7c-0.1,1.4,0.1,2.6,0.4,3.9   c1.4,5.4,9.7,13.4,4,19.8c-1.6,1.7-4,2.2-6.2,1.5C49.1,114.8,47,112.9,46.1,110z"></path><path fill-rule="evenodd" clip-rule="evenodd" d="M46.5,109.5c-2-6.2,2.6-13.3,6.4-17.8c0,1.3,0.1,2.4,0.4,3.6   c1.3,4.9,8.8,12.1,3.6,17.9c-1.4,1.6-3.6,2-5.6,1.3C49.2,113.8,47.3,112.1,46.5,109.5z"></path><path fill-rule="evenodd" clip-rule="evenodd" d="M47.5,107.4c-1.6-4.8,2-10.4,5-13.9c0,1,0.1,1.8,0.3,2.8c1,3.8,6.8,9.4,2.8,13.9   c-1.1,1.2-2.8,1.5-4.4,1C49.6,110.8,48.2,109.4,47.5,107.4z"></path><path fill-rule="evenodd" clip-rule="evenodd" d="M58.3,101c-5.1-4.7-4.5-13.6-3.3-19.7c0.6,1.2,1.3,2.1,2.2,3.1   C60.9,88.3,71.5,91,69.8,99c-0.5,2.2-2.3,3.7-4.5,4.1C63.1,103.6,60.4,103,58.3,101z"></path><path fill-rule="evenodd" clip-rule="evenodd" d="M59,100.8c-4.4-3.7-4.3-11.2-3.6-16.3c0.6,1,1.2,1.7,2,2.5   c3.3,3.1,12.2,4.9,11.1,11.7c-0.3,1.8-1.7,3.2-3.6,3.6C63.1,102.7,60.9,102.3,59,100.8z"></path><path fill-rule="evenodd" clip-rule="evenodd" d="M88.3,97.1c-5-1.7-7.4-8.2-8.4-12.9c0.8,0.6,1.6,1.1,2.5,1.5   c3.8,1.6,12.2,0.2,13.4,6.4c0.3,1.7-0.5,3.3-1.9,4.3C92.4,97.4,90.4,97.8,88.3,97.1z"></path><path fill-rule="evenodd" clip-rule="evenodd" d="M88.7,96.7c-4.3-1.2-6.5-6.6-7.6-10.4c0.7,0.5,1.3,0.9,2.2,1.1   c3.2,1.2,10.2-0.3,11.5,4.8c0.3,1.4-0.3,2.8-1.4,3.7C92.2,96.8,90.5,97.2,88.7,96.7z"></path><path fill-rule="evenodd" clip-rule="evenodd" d="M102.7,79.8c-5-1.7-7.4-8.2-8.4-12.9c0.8,0.6,1.6,1.1,2.5,1.5   c3.8,1.6,12.2,0.2,13.4,6.4c0.3,1.7-0.5,3.3-1.9,4.3C106.9,80.2,104.9,80.6,102.7,79.8z"></path><path fill-rule="evenodd" clip-rule="evenodd" d="M103.1,79.4c-4.3-1.2-6.5-6.6-7.6-10.4c0.7,0.5,1.3,0.9,2.2,1.1   c3.2,1.2,10.2-0.3,11.5,4.8c0.4,1.4-0.3,2.8-1.4,3.7C106.6,79.5,105,79.9,103.1,79.4z"></path><path fill-rule="evenodd" clip-rule="evenodd" d="M112.5,33.4c-3.4,3-9.2,2.1-13.1,1c0.8-0.3,1.5-0.7,2.1-1.3   c2.7-2.2,5.2-9,10.3-7.4c1.4,0.4,2.3,1.7,2.4,3.2C114.4,30.4,113.9,32.1,112.5,33.4z"></path><path fill-rule="evenodd" clip-rule="evenodd" d="M112.3,32.9c-2.7,2.7-7.6,2.1-10.9,1.4c0.7-0.3,1.2-0.7,1.7-1.1   c2.2-1.9,4-7.7,8.3-6.6c1.2,0.3,2,1.3,2.2,2.6C113.8,30.3,113.5,31.8,112.3,32.9z"></path><path fill-rule="evenodd" clip-rule="evenodd" d="M29.2,95.9c1.5-6.6,9.3-10.4,15-12.4c-0.7,1.1-1.2,2.1-1.5,3.4   c-1.4,5,1.4,15.3-6.2,17.7c-2.1,0.7-4.2-0.1-5.7-1.8C29.4,101.2,28.6,98.7,29.2,95.9z"></path><path fill-rule="evenodd" clip-rule="evenodd" d="M74,99.2c-4.1-2.5-4.9-8.7-4.9-13c0.6,0.7,1.2,1.3,1.9,1.8   c3,2.1,10.7,2.6,10.5,8.3c0,1.6-1.1,2.8-2.5,3.4C77.6,100.3,75.7,100.2,74,99.2z"></path><path fill-rule="evenodd" clip-rule="evenodd" d="M119.9,40.4c-4.2,2.3-10-0.1-13.7-2.2c0.9-0.1,1.7-0.4,2.5-0.8   c3.4-1.6,7.5-8,12.4-5c1.3,0.8,1.9,2.3,1.7,3.9C122.7,37.8,121.7,39.4,119.9,40.4z"></path><path fill-rule="evenodd" clip-rule="evenodd" d="M103.7,27.6c-1.6,5.1-8,7.7-12.7,8.9c0.6-0.8,1.1-1.6,1.4-2.6   c1.4-3.9-0.2-12.2,6-13.6c1.7-0.4,3.3,0.4,4.4,1.8C103.9,23.4,104.3,25.4,103.7,27.6z"></path><path fill-rule="evenodd" clip-rule="evenodd" d="M103.3,27.2c-1.1,4.3-6.4,6.7-10.2,7.9c0.5-0.7,0.8-1.4,1.1-2.2   c1.1-3.3-0.6-10.2,4.5-11.6c1.4-0.4,2.8,0.2,3.7,1.3C103.2,23.7,103.7,25.4,103.3,27.2z"></path><path fill-rule="evenodd" clip-rule="evenodd" d="M102.6,27.1c-0.8,3.8-5.3,6-8.6,7.1c0.4-0.6,0.7-1.2,0.9-1.9   c0.8-2.9-0.8-8.8,3.5-10.1c1.2-0.4,2.4,0.1,3.2,1C102.5,24.1,102.9,25.6,102.6,27.1z"></path></g></svg>